<?xml version="1.0" encoding="utf-8"?>
<svg xmlns="http://www.w3.org/2000/svg" viewBox="0 0 500 500" xmlns:bx="https://boxy-svg.com">
  <path style="stroke: rgb(0, 0, 0); fill: none; stroke-linecap: round; stroke-linejoin: round; stroke-width: 25px;" d="M 63.25 159.748 C 63.25 159.748 55.682 189.777 54.71 205.865 C 53.66 223.249 56.291 250.257 58.126 260.522 C 58.867 264.664 59.038 267.836 60.688 269.063 C 61.939 269.993 65.812 269.063 65.812 269.063" bx:d="M 63.25 159.748 R 54.71 205.865 R 58.126 260.522 R 60.688 269.063 R 65.812 269.063 1@481f3b8f"/>
  <path style="fill: rgb(216, 216, 216); stroke: rgb(0, 0, 0); stroke-linecap: round; stroke-linejoin: round; stroke-width: 25px;" d="M 60.688 269.917 C 60.688 269.917 42.3500317761563 283.10267269485206 35.067 291.267 C 27.856677301727387 299.34981994281003 17.133 318.596 17.133 318.596" bx:d="M 60.688 269.917 R 35.067 291.267 R 17.133 318.596 1@9c210caf"/>
  <path style="fill: rgb(216, 216, 216); stroke: rgb(0, 0, 0); stroke-linecap: round; stroke-linejoin: round; stroke-width: 25px;" d="M 17.797 322.012 C 17.797 322.012 31.547610442756035 320.40467719525685 38.293 318.596 C 45.21658013121834 316.7395436179635 58.79 310.909 58.79 310.909" bx:d="M 17.797 322.012 R 38.293 318.596 R 58.79 310.909 1@80f48eb6"/>
  <path style="stroke: rgb(0, 0, 0); stroke-linecap: round; stroke-linejoin: round; fill: none; stroke-width: 25px;" d="M 57.082 313.472 C 57.082 313.472 50.162 338.844 49.396 353.61 C 48.468 371.502 46.912 409.692 54.52 413.392 C 59.864 415.991 72.559 395.733 79.286 397.165 C 85.878 398.568 86.794 418.919 94.659 421.078 C 105.446 424.039 142.484 397.165 142.484 397.165" bx:d="M 57.082 313.472 R 49.396 353.61 R 54.52 413.392 R 79.286 397.165 R 94.659 421.078 R 142.484 397.165 1@fe2a9ea8"/>
  <path style="stroke: rgb(0, 0, 0); stroke-linecap: round; stroke-linejoin: round; fill: none; stroke-width: 25px;" d="M 127.985 238.676 C 127.985 238.676 121.92546942943858 263.4999433979584 118.611 277.127 C 114.85034401634987 292.58850086491736 105.79767137833069 311.02443489024176 106.596 326.64 C 107.33371431202434 341.0699296794945 109.72153302529885 356.1677745658328 121.114 367.653 C 139.45040783671647 386.13870446815315 192.00669857671272 398.5954721944252 227.052 406.123 C 259.60265604573044 413.11469242445503 324.045243474811 412.50389710262647 324.012 413.392 C 323.9927650778362 413.90586295209863 294.8670956318355 408.33900301116677 291.46 413.392 C 288.0210865074642 418.49218543661476 298.68306267153827 436.01790617289265 303.893 444.136 C 308.05321048957103 450.6184156157032 313.7786142416398 459.2499490862635 318.412 459.509 C 322.25453934313197 459.7238349780958 324.99492728419517 450.1683149701258 329.514 450.115 C 336.42475705581535 450.033468493616 348.0348542671342 468.12230555701825 355.988 471.465 C 361.20228544804263 473.65655584176767 370.507 473.173 370.507 473.173" bx:d="M 127.985 238.676 R 118.611 277.127 R 106.596 326.64 R 121.114 367.653 R 227.052 406.123 R 324.012 413.392 R 291.46 413.392 R 303.893 444.136 R 318.412 459.509 R 329.514 450.115 R 355.988 471.465 R 370.507 473.173 1@a948e39e"/>
  <path style="stroke: rgb(0, 0, 0); fill: none; stroke-linecap: round; stroke-linejoin: round; stroke-width: 25px;" d="M 428.248 393.749 C 428.248 393.749 440.887 398.077 444.474 396.311 C 447.369 394.886 449.705 390.87 449.598 386.917 C 449.408 379.858 437.435 366.278 431.664 357.881 C 426.973 351.056 419.124 347.958 418 339.946 C 416.187 327.02 432.753 304.031 439.35 285.289 C 446.168 265.921 452.62 246.541 458.139 225.508 C 464.144 202.62 472.245 172.382 473.511 152.916 C 474.35 140.023 474.957 125.99 470.949 120.463 C 468.609 117.235 464.557 116.221 460.701 116.193 C 455.737 116.157 450.194 120.113 443.62 123.025 C 434.291 127.157 423.694 132.953 410.313 139.252 C 390.339 148.655 335.16 173.412 335.16 173.412" bx:d="M 428.248 393.749 R 444.474 396.311 R 449.598 386.917 R 431.664 357.881 R 418 339.946 R 439.35 285.289 R 458.139 225.508 R 473.511 152.916 R 470.949 120.463 R 460.701 116.193 R 443.62 123.025 R 410.313 139.252 R 335.16 173.412 1@d08b114f"/>
  <path style="stroke: rgb(0, 0, 0); stroke-linecap: round; stroke-linejoin: round; fill: none; stroke-width: 25px;" d="M 349.678 251.982 C 349.678 251.982 352.343 236.075 351.386 225.508 C 349.908 209.174 344.85 181.28 336.014 164.018 C 328.142 148.64 313.129 131.457 303.561 125.587 C 298.351 122.391 291.777 119.939 289.043 122.171 C 285.227 125.286 289.897 151.208 289.897 151.208" bx:d="M 349.678 251.982 R 351.386 225.508 R 336.014 164.018 R 303.561 125.587 R 289.043 122.171 R 289.897 151.208 1@066f9fb9"/>
  <path style="stroke: rgb(0, 0, 0); stroke-linecap: round; stroke-linejoin: round; fill: none; stroke-width: 25px;" d="M 287.999 152.062 C 287.999 152.062 257.08716558881895 96.30523827894261 237.612 76.055 C 220.35758696938595 58.11389579527754 187.58174478797997 30.221918612602558 179.539 34.207 C 174.12260478426262 36.89075739004951 181.7590585701338 57.25576182595497 178.685 66.66 C 175.88118291920762 75.23750853559021 164.04609719965458 89.26419990468868 163.312 88.865 C 162.7522625779382 88.56061643111714 169.8866338329028 79.79532628934501 169.29 74.346 C 168.4075084761768 66.28580630046328 152.06055591520303 52.2877789036328 149.648 46.164 C 148.6364781710124 43.59645907882022 150.25041282374062 40.96045917301218 148.794 40.186 C 145.47712730785184 38.42222640485261 127.32743613391537 48.67164478827814 120.611 53.85 C 115.84864452634201 57.52176398247275 110.363 65.806 110.363 65.806" bx:d="M 287.999 152.062 R 237.612 76.055 R 179.539 34.207 R 178.685 66.66 R 163.312 88.865 R 169.29 74.346 R 149.648 46.164 R 148.794 40.186 R 120.611 53.85 R 110.363 65.806 1@6787d32f"/>
  <path style="stroke: rgb(0, 0, 0); fill: none; stroke-linecap: round; stroke-linejoin: round; stroke-width: 25px;" d="M 207.721 123.025 C 207.721 123.025 174.588 102.372 161.604 96.551 C 152.826 92.616 138.546 88.865 138.546 88.865" bx:d="M 207.721 123.025 R 161.604 96.551 R 138.546 88.865 1@6c3240eb"/>
  <path style="stroke: rgb(0, 0, 0); fill: none; stroke-linecap: round; stroke-linejoin: round; stroke-width: 25px;" d="M 143.67 234.048 C 143.67 234.048 126.49872178558012 228.91763959500406 118.049 223.8 C 107.95639440918167 217.68733507457318 87.0817748370138 202.87133951417192 88.159 198.179 C 88.86225040740588 195.1156760187069 104.385 193.909 104.385 193.909" bx:d="M 143.67 234.048 R 118.049 223.8 R 88.159 198.179 R 104.385 193.909 1@ece722b3"/>
  <path style="fill: none; stroke: rgb(0, 0, 0); stroke-linecap: round; stroke-linejoin: round; stroke-width: 25px;" d="M 152.946 331.285 C 152.946 331.285 169.035 325.763 178.404 322.269 C 190.109 317.904 217.652 306.888 217.652 306.888" bx:d="M 152.946 331.285 R 178.404 322.269 R 217.652 306.888 1@aeaae538"/>
  <path style="stroke: rgb(0, 0, 0); stroke-linecap: round; stroke-linejoin: round; fill: none; stroke-width: 25px;" d="M 160.371 285.672 C 160.371 285.672 168.894 303.644 175.222 312.722 C 182.679 323.421 203.332 345.075 203.332 345.075" bx:d="M 160.371 285.672 R 175.222 312.722 R 203.332 345.075 1@2480a450"/>
  <path style="fill: rgb(216, 216, 216); stroke: rgb(0, 0, 0); stroke-linecap: round; stroke-width: 25px;" d="M 250.006 356.213 C 250.006 356.213 252.85300623289234 354.8740275664783 254.249 354.091 C 255.68267635627922 353.28683587346484 258.492 351.439 258.492 351.439" bx:d="M 250.006 356.213 R 254.249 354.091 R 258.492 351.439 1@28283f76"/>
  <path style="fill: rgb(216, 216, 216); stroke: rgb(0, 0, 0); stroke-linecap: round; stroke-width: 55px;" d="M 47.575 69.189 L 434.841 466.781" bx:d="M 47.575 69.189 R 434.841 466.781 1@bf4beb17"/>
</svg>