<?xml version="1.0" encoding="utf-8"?>
<svg xmlns="http://www.w3.org/2000/svg" viewBox="0 0 500 500">
  <path d="M 438.86 253.111 C 442.438 282.247 439.677 313.758 432.125 340.224 C 424.548 366.777 410.561 393.995 393.862 415.368 C 377.164 436.74 354.139 456.897 330.207 470.673 C 306.355 484.403 276.447 494.705 247.311 498.282 C 218.175 501.86 186.663 499.099 160.198 491.547 C 133.645 483.97 106.427 469.983 85.054 453.285 C 63.682 436.586 43.525 413.561 29.749 389.629 C 16.019 365.778 5.717 335.869 2.14 306.733 C -1.438 277.597 1.323 246.086 8.875 219.62 C 16.452 193.067 30.439 165.849 47.137 144.477 C 63.836 123.104 86.861 102.947 110.793 89.171 C 134.644 75.441 164.553 65.139 193.689 61.562 C 222.825 57.984 254.336 60.745 280.802 68.297 C 295.883 72.6 311.178 78.971 325.495 86.732 L 269.642 84.783 C 258.327 84.387 248.834 93.239 248.439 104.554 L 247.012 145.411 C 246.617 156.727 255.469 166.219 266.784 166.615 L 285.321 167.263 C 282.08 168.383 279.001 169.717 276.741 171.015 C 271.908 173.803 265.471 179.431 262.135 183.7 C 258.8 187.969 254.896 195.576 253.361 200.941 C 251.859 206.218 251.083 215.054 251.806 220.945 C 252.529 226.836 255.421 235.222 258.155 239.979 C 260.942 244.813 266.57 251.25 270.838 254.585 C 275.108 257.92 282.715 261.824 288.079 263.36 C 293.357 264.861 302.193 265.638 308.084 264.914 C 313.975 264.191 322.361 261.3 327.118 258.565 C 330.376 256.687 334.363 253.517 337.637 250.343 C 340.948 256.648 347.456 261.046 355.082 261.313 L 395.961 262.74 C 407.275 263.135 416.768 254.283 417.163 242.968 L 419.171 185.455 C 428.891 206.195 436.01 229.897 438.86 253.111 Z M 170.072 211.375 C 167.314 206.581 161.745 200.219 157.513 196.913 C 153.282 193.607 145.762 189.743 140.443 188.226 C 135.213 186.733 126.476 185.969 120.637 186.686 C 114.798 187.403 106.505 190.258 101.792 192.972 C 96.998 195.731 90.636 201.299 87.33 205.531 C 84.024 209.762 80.16 217.282 78.643 222.601 C 77.15 227.831 76.386 236.568 77.103 242.407 C 77.82 248.246 80.675 256.539 83.389 261.252 C 86.148 266.046 91.716 272.408 95.948 275.714 C 100.179 279.02 107.699 282.884 113.018 284.401 C 118.248 285.894 126.985 286.658 132.824 285.941 C 138.663 285.224 146.956 282.369 151.669 279.655 C 156.463 276.897 162.825 271.328 166.131 267.096 C 169.437 262.865 173.301 255.345 174.818 250.026 C 176.311 244.796 177.075 236.059 176.358 230.22 C 175.641 224.381 172.786 216.088 170.072 211.375 Z M 333.02 174.996 C 330.226 172.813 326 170.386 321.911 168.54 L 337.79 169.094 L 337.443 179.042 C 335.921 177.475 334.4 176.074 333.02 174.996 Z M 90.552 319.634 C 86.254 350.644 167.277 453.133 244.632 444.642 C 318.267 436.558 363.338 325.944 354.147 285.82 C 352.887 275.95 233.458 294.931 219.657 295.704 C 205.176 299.053 91.919 309.768 90.552 319.634 Z M 379.482 148.615 C 379.141 138.456 371.361 130.066 361.272 128.948 C 366.473 128.737 371.203 126.575 374.718 123.155 C 378.679 127.082 382.532 131.19 386.24 135.437 C 382.535 138.738 380.025 143.369 379.482 148.615 Z" style="stroke-linejoin: round; stroke-linecap: round;"></path>
  <path d="M 331.729 10.354 H 371.536 V 99.463 H 460.632 V 139.251 H 371.536 V 228.36 H 331.729 V 139.251 H 242.632 V 99.463 H 331.729 Z" bx:shape="cross 242.632 10.354 218 218.006 39.788 39.807 0.5 1@db5d3310" style="stroke-linecap: round; stroke-linejoin: round; stroke-width: 22px; transform-box: fill-box; transform-origin: 50% 50%;" transform="matrix(0.999391, 0.034899, -0.034899, 0.999391, 25.936794, 8.725329)"></path>
</svg>