<?xml version="1.0" encoding="utf-8"?>
<svg xmlns="http://www.w3.org/2000/svg" viewBox="0 0 500 500">
  <path d="M 92.824 19.75 C 100.68 5.163 118.874 -0.294 133.462 7.562 C 133.462 7.562 200.013 43.404 266.556 88.354 C 299.772 110.792 334.432 136.576 360.274 161.086 C 373.408 173.543 385.875 187.405 394.248 199.885 C 403.101 213.082 410.621 231.527 410.745 246.107 C 410.869 260.807 403.554 279.534 394.783 293.039 C 386.487 305.812 374.068 320.062 360.915 332.95 C 335.027 358.314 300.193 385.18 266.733 408.662 C 199.705 455.705 135.026 491.972 135.026 491.972 C 133.771 492.763 135.026 491.972 135.026 491.972 C 121.464 501.49 102.754 498.212 93.236 484.65 C 83.718 471.088 86.996 452.378 100.558 442.86 C 100.558 442.86 101.813 442.069 100.558 442.86 C 100.558 442.86 167.663 404.891 232.266 359.551 C 264.621 336.843 295.564 312.98 318.923 290.093 C 330.393 278.855 338.464 269.597 344.464 260.358 C 349.99 251.85 350.776 250.061 350.747 246.615 C 350.718 243.226 349.952 241.556 344.421 233.312 C 338.409 224.35 330.394 215.442 318.983 204.619 C 295.735 182.568 265.056 159.748 232.97 138.074 C 168.911 94.801 105.012 60.388 105.012 60.388 C 90.425 52.532 84.968 34.338 92.824 19.75 Z" style="transform-box: fill-box; transform-origin: 50% 50%;" transform="matrix(-1, 0, 0, -1, -0.000011, 0.000026)"/>
</svg>