<?xml version="1.0" encoding="utf-8"?>
<svg viewBox="0 0 500 500" xmlns="http://www.w3.org/2000/svg">
  <path d="M 112.476 307.026 C 112.476 307.026 186.14 375.812 206.163 397.796 C 222.801 373.278 248.8 331.848 267.538 295.921 C 300.75 232.242 351.734 108.041 366.887 65.021 C 372.107 50.201 375.602 33.622 375.602 33.622 C 378.45 20.112 391.711 11.469 405.222 14.318 C 418.732 17.166 427.375 30.427 424.526 43.938 C 424.526 43.938 420.351 63.735 414.047 81.633 C 398.472 125.851 346.136 253.344 311.87 319.043 C 307.001 328.378 301.635 338.113 296.041 347.88 C 288.846 346.95 282.566 345.781 279.19 345.108 C 277.916 344.677 276.581 344.416 275.22 344.343 C 267.423 343.425 260.102 348.774 258.504 356.825 C 256.816 365.333 262.158 373.638 270.438 375.373 C 270.438 375.373 270.921 375.47 271.815 375.635 C 273.391 377.102 275.055 378.672 276.766 380.315 C 258.126 410.653 240.307 436.987 232.524 446.806 C 232.044 447.411 231.042 449.117 229.02 451.673 C 227.743 453.288 224.178 456.931 221.073 458.845 C 217.595 460.989 209.454 463.224 204.768 462.952 C 200.279 462.692 193.332 459.978 190.523 458.096 C 188.235 456.563 185.26 453.77 183.86 452.179 C 181.521 449.521 179.14 445.948 177.568 443.476 C 174.508 438.662 172.228 434.814 169.44 431.732 C 151.355 411.737 75.394 340.566 75.394 340.566 C 76.126 341.31 75.394 340.566 75.394 340.566 C 66.132 330.326 66.925 314.517 77.165 305.255 C 87.405 295.993 103.214 296.786 112.476 307.026 C 112.476 307.026 111.744 306.282 112.476 307.026 Z M 221.394 419.146 C 221.395 419.147 221.395 419.147 221.395 419.147 C 221.395 419.147 221.395 419.147 221.394 419.146 Z" style=""/>
  <path d="M 57.597 182.409 C 54.22 174.844 57.614 165.974 65.178 162.596 C 65.178 162.596 102.876 145.836 116.57 130.011 C 124.804 120.497 132.687 98.198 140.255 76.253 C 144.037 65.288 147.661 54.586 150.975 46.705 C 152.697 42.61 154.827 38.273 156.796 35.386 C 157.974 33.659 160.233 31.063 162.08 29.655 C 164.596 27.737 171.343 25.51 175.437 26.18 C 179.561 26.854 185.236 31.131 187.009 33.735 C 188.308 35.643 189.636 38.782 190.232 40.809 C 191.236 44.223 191.962 49.094 192.373 53.659 C 193.164 62.457 193.375 74.154 193.591 86.126 C 194.023 110.07 194.447 134.706 198.63 146.221 C 201.028 152.82 206.856 158.598 213.856 165.909 C 217.367 169.576 221.428 173.916 224.23 178.122 C 227.336 182.784 230.496 192.051 228.885 198.914 C 227.299 205.673 220.4 212.466 215.716 215.122 C 211.497 217.514 206.167 219.446 201.733 220.996 C 192.893 224.085 186.534 226.069 182.861 229.882 C 176.917 236.054 170.992 251.867 164.636 268.438 C 161.456 276.728 158.194 285.157 155.041 291.395 C 153.369 294.702 151.02 298.569 148.845 301.06 C 147.543 302.552 145.001 304.793 143.049 305.914 C 140.666 307.282 135.28 308.64 132.019 308.279 C 128.676 307.908 123.621 305.294 121.584 303.37 C 119.927 301.805 117.964 299.005 117.032 297.223 C 115.473 294.243 114.062 289.871 113.165 286.16 C 111.469 279.135 110.152 269.888 108.848 260.768 C 106.24 242.525 103.841 225.385 99.066 218.122 C 90.96 205.795 58.761 186.453 58.761 186.453 C 61.457 188.928 58.761 186.453 58.761 186.453 C 54.209 179.531 56.131 170.23 63.053 165.679 C 69.975 161.127 79.276 163.049 83.827 169.971 C 83.827 169.971 81.131 167.496 83.827 169.971 C 83.827 169.971 112.127 183.382 124.132 201.64 C 132.408 214.227 135.936 238.265 138.546 256.522 C 139.851 265.651 140.966 273.483 142.327 279.117 C 142.959 281.735 143.233 282.588 143.616 283.32 C 143.654 283.394 142.726 282.073 142.181 281.558 C 141.255 280.684 137.388 278.69 135.323 278.461 C 133.316 278.239 129.203 279.271 128.111 279.897 C 127.451 280.277 126.219 281.361 126.246 281.33 C 126.73 280.775 127.119 280.132 128.267 277.861 C 130.753 272.943 133.462 265.942 136.626 257.694 C 142.956 241.192 151.207 219.502 161.253 209.072 C 169.792 200.206 183.259 195.672 191.836 192.675 C 196.11 191.181 198.886 190.178 200.918 189.026 C 202.484 188.138 199.98 190.777 199.679 192.058 C 199.414 193.185 200.397 196.457 199.263 194.755 C 197.824 192.596 195.582 190.202 192.187 186.657 C 185.376 179.543 174.982 168.985 170.434 156.465 C 164.588 140.376 164.028 110.612 163.596 86.667 C 163.38 74.695 163.189 64.075 162.493 56.348 C 162.161 52.65 161.872 50.705 161.451 49.273 C 161.334 48.876 161.846 50.084 162.21 50.617 C 163.047 51.847 167.666 55.307 170.597 55.786 C 173.51 56.263 179.028 54.458 180.268 53.513 C 180.839 53.078 181.774 52.006 181.581 52.289 C 180.809 53.42 180.013 55.045 178.629 58.335 C 175.731 65.226 172.425 74.989 168.616 86.034 C 161.003 108.11 151.057 136.005 139.256 149.643 C 121.403 170.273 77.41 189.99 77.41 189.99 C 69.845 193.367 60.975 189.973 57.597 182.409 Z" style="transform-box: fill-box; transform-origin: 50% 50%;" transform="matrix(0.970296, -0.241922, 0.241922, 0.970296, 0.000004, 0.000002)"/>
  <path d="M 259.153 357.507 C 260.808 349.39 268.731 344.152 276.848 345.808 C 276.848 345.808 318.495 354.77 331.467 347.395 C 337.073 344.208 341.865 331.852 348.213 315.956 C 351.384 308.016 354.641 299.656 357.961 293.328 C 359.722 289.974 362.286 285.96 364.71 283.384 C 367.702 280.206 375.442 276.04 381.046 276.397 C 386.572 276.749 393.666 281.747 396.217 285.211 C 398.285 288.018 400.309 292.26 401.6 295.71 C 404.029 302.199 406.124 310.626 408.172 318.599 C 412.272 334.56 415.268 346.825 420.174 350.568 C 424.358 353.76 434.01 353.624 447.314 353.41 C 453.942 353.303 460.908 353.059 466.448 353.421 C 469.432 353.616 473.428 354.197 476.219 355.157 C 477.944 355.751 480.959 357.29 482.657 358.687 C 484.705 360.37 487.768 364.846 488.541 367.863 C 489.349 371.015 488.722 376.565 487.682 379.066 C 486.836 381.099 484.941 383.858 483.685 385.247 C 481.624 387.528 478.312 390.107 475.563 391.935 C 470.401 395.367 463.455 399.091 456.771 402.783 C 443.376 410.181 432.492 416.275 429.611 421.9 C 427.173 426.66 428.496 435.928 430.252 448.431 C 431.127 454.667 432.148 461.334 432.358 466.749 C 432.472 469.683 432.273 473.759 431.554 476.659 C 430.628 480.396 426.006 487.479 421.242 489.674 C 418.517 490.93 413.411 491.461 410.885 491.055 C 408.752 490.713 405.665 489.537 404.059 488.659 C 401.406 487.209 398.222 484.608 396.015 482.485 C 391.899 478.528 387.329 473.104 382.989 468.125 C 374.289 458.145 369.309 451.95 365.871 451.705 C 362.164 451.441 355.607 457.465 344.852 466.67 C 339.484 471.264 333.83 476.252 328.909 479.757 C 326.281 481.629 322.647 483.802 319.724 484.89 C 317.966 485.544 314.717 486.276 312.527 486.315 C 309.93 486.362 304.895 485.105 302.336 483.446 C 297.902 480.569 294.317 472.886 293.906 468.994 C 293.585 465.949 293.947 461.79 294.479 458.772 C 295.463 453.179 297.478 446.37 299.311 439.966 C 302.983 427.137 305.846 417.291 304.129 411.994 C 299.499 397.71 260.488 365.208 260.488 365.208 C 263.108 368.884 260.488 365.208 260.488 365.208 C 257.934 357.327 262.251 348.868 270.132 346.314 C 278.013 343.76 286.472 348.077 289.026 355.958 C 289.026 355.958 286.406 352.282 289.026 355.958 C 289.026 355.958 325.383 380.269 332.667 402.744 C 336.908 415.827 331.887 435.175 328.153 448.221 C 326.283 454.755 324.714 460.053 324.024 463.972 C 323.719 465.709 323.721 465.657 323.741 465.849 C 323.672 465.193 321.129 459.877 318.662 458.276 C 317.101 457.264 313.243 456.298 311.984 456.32 C 311.132 456.336 309.381 456.729 309.264 456.772 C 309.624 456.639 309.845 456.504 311.504 455.322 C 315.158 452.72 319.806 448.618 325.344 443.878 C 336.401 434.415 354.068 420.789 368.001 421.781 C 381.675 422.754 396.615 438.1 405.604 448.413 C 410.108 453.581 413.824 457.991 416.808 460.86 C 418.15 462.15 418.219 462.21 418.443 462.332 C 418.275 462.24 416.533 461.578 415.641 461.435 C 414.357 461.228 410.387 461.644 408.686 462.428 C 405.952 463.688 402.62 468.694 402.434 469.445 C 402.455 469.361 402.444 469.543 402.381 467.91 C 402.237 464.19 401.445 459.025 400.543 452.602 C 398.744 439.789 396.656 420.432 402.911 408.222 C 409.492 395.374 428.596 384.072 442.267 376.522 C 449.116 372.739 454.971 369.601 458.951 366.954 C 460.772 365.743 461.115 365.478 461.428 365.132 C 461.359 365.209 460.33 366.708 459.984 367.54 C 459.444 368.839 458.951 373.245 459.481 375.311 C 459.993 377.31 462.457 380.916 463.603 381.859 C 464.399 382.513 466.21 383.439 466.463 383.527 C 466.313 383.475 466.299 383.475 464.492 383.357 C 460.451 383.093 454.71 383.295 447.797 383.406 C 434.017 383.628 413.245 383.016 401.976 374.418 C 389.814 365.139 383.266 342.219 379.116 326.062 C 377.039 317.976 375.332 311.111 373.504 306.228 C 372.667 303.991 372.448 303.527 372.062 303.002 C 372.159 303.135 376.588 306.174 379.14 306.337 C 381.716 306.501 386.497 304.008 386.554 303.948 C 386.044 304.489 385.697 305.037 384.526 307.269 C 381.983 312.114 379.292 319.023 376.074 327.082 C 369.643 343.185 359.885 365.748 346.293 373.475 C 324.741 385.728 270.852 375.202 270.852 375.202 C 262.735 373.547 257.497 365.624 259.153 357.507 Z" style=""/>
</svg>