<?xml version="1.0" encoding="utf-8"?>
<svg xmlns="http://www.w3.org/2000/svg" viewBox="0 0 500 500">
  <path d="M 75.727 160.502 C 76.144 153.611 70.895 147.687 64.004 147.271 C 57.113 146.854 51.189 152.103 50.773 158.994 C 50.773 158.994 50.951 157.844 50.773 158.994 C 50.773 158.994 43.275 187.867 42.233 205.111 C 41.123 223.473 43.898 251.966 45.821 262.722 C 46.427 266.11 47.721 274.995 53.226 279.092 C 56.845 281.784 63.241 282.028 65.005 281.846 C 66.952 281.644 68.732 281.217 68.732 281.217 C 75.445 279.604 79.579 272.856 77.966 266.143 C 76.353 259.43 69.605 255.296 62.892 256.909 C 62.892 256.909 62.735 256.947 62.433 256.978 C 61.948 257.028 65.782 257.273 68.15 259.034 C 70.355 260.675 71.306 263.218 70.431 258.322 C 68.683 248.548 66.196 223.024 67.187 206.619 C 68.089 191.688 75.727 160.502 75.727 160.502 C 75.549 161.652 75.727 160.502 75.727 160.502 Z" style=""/>
  <path d="M 70.016 278.238 C 74.612 273.086 74.161 265.185 69.009 260.589 C 63.857 255.993 55.956 256.444 51.36 261.596 C 51.36 261.596 52.375 260.682 51.36 261.596 C 51.36 261.596 33.926 273.768 25.739 282.946 C 17.621 292.047 6.214 312.512 6.214 312.512 C 2.853 318.542 5.018 326.155 11.049 329.515 C 17.08 332.876 24.692 330.711 28.052 324.68 C 28.052 324.68 38.093 306.653 44.395 299.588 C 50.774 292.437 70.016 278.238 70.016 278.238 C 69.001 279.152 70.016 278.238 70.016 278.238 Z" style=""/>
  <path d="M 14.56 309.938 C 7.892 311.726 3.936 318.581 5.723 325.249 C 7.511 331.917 14.366 335.873 21.034 334.086 C 21.034 334.086 20.141 334.257 21.034 334.086 C 21.034 334.086 33.909 332.713 41.53 330.67 C 49.319 328.581 63.724 322.394 63.724 322.394 C 70.067 319.67 73 312.319 70.275 305.975 C 67.55 299.632 60.2 296.699 53.856 299.424 C 53.856 299.424 41.114 304.898 35.056 306.522 C 29.186 308.096 14.56 309.938 14.56 309.938 C 15.453 309.768 14.56 309.938 14.56 309.938 Z" style=""/>
  <path d="M 69.565 314.12 C 69.923 307.226 64.624 301.347 57.73 300.989 C 50.836 300.631 44.957 305.93 44.599 312.824 C 44.599 312.824 44.811 311.504 44.599 312.824 C 44.599 312.824 37.748 336.868 36.913 352.962 C 36.446 361.955 35.801 376.528 36.265 389.278 C 36.5 395.711 37.08 402.443 38.14 407.548 C 39.306 413.159 43.484 421.925 49.053 424.633 C 52.386 426.254 58.364 426.085 60.939 425.192 C 63.005 424.475 65.605 422.928 67.123 421.807 C 69.859 419.787 72.77 416.946 75.106 414.671 C 77.442 412.396 79.236 410.652 80.808 409.478 C 82.085 408.525 78.758 409.833 76.684 409.391 C 74.579 408.943 71.804 406.074 72.323 407.052 C 73.033 408.39 73.724 410.33 74.764 413.155 C 75.803 415.979 77.248 419.787 79.052 422.898 C 81.015 426.284 86.169 431.71 91.35 433.132 C 100.77 435.718 118.022 427.549 129.035 420.958 C 140.117 414.326 149.825 407.282 149.825 407.282 C 155.413 403.228 156.656 395.412 152.601 389.824 C 148.547 384.236 140.731 382.993 135.143 387.048 C 135.143 387.048 126.332 393.441 116.197 399.506 C 105.995 405.612 99.335 409.399 97.968 409.024 C 99.216 409.367 101.306 411.439 100.68 410.358 C 99.894 409.002 99.223 407.23 98.226 404.521 C 97.229 401.813 95.964 398.267 94.403 395.328 C 92.651 392.027 87.289 386.088 81.888 384.939 C 76.45 383.781 69.014 387.085 65.852 389.446 C 62.984 391.586 60.01 394.476 57.663 396.761 C 55.316 399.047 53.631 400.693 52.273 401.696 C 51.744 402.086 52.424 401.684 52.746 401.573 C 53.578 401.284 57.99 401.18 59.987 402.151 C 61.752 403.009 63.272 405.614 62.618 402.465 C 61.859 398.81 61.46 394.182 61.249 388.368 C 60.821 376.625 61.417 363.156 61.879 354.258 C 62.577 340.82 69.565 314.12 69.565 314.12 C 69.353 315.44 69.565 314.12 69.565 314.12 Z" style=""/>
  <path d="M 140.131 241.63 C 141.762 234.922 137.647 228.162 130.939 226.53 C 124.231 224.899 117.471 229.014 115.839 235.722 C 115.839 235.722 115.84 235.717 115.839 235.722 C 115.839 235.722 109.781 260.541 106.465 274.173 C 103.024 288.322 93.159 308.629 94.112 327.278 C 94.884 342.367 98.273 362.376 112.239 376.456 C 132.902 397.286 189.252 410.789 224.427 418.344 C 241.591 422.031 266.908 423.697 287.236 424.536 C 297.426 424.956 306.584 425.184 313.116 425.36 C 316.377 425.448 318.907 425.521 320.629 425.599 C 321.447 425.636 321.835 425.659 322.089 425.683 C 322.112 425.686 321.629 425.622 321.309 425.556 C 320.945 425.481 319.759 425.149 319.021 424.832 C 318.345 424.54 316.599 423.52 315.672 422.692 C 314.087 421.276 311.403 416.075 311.521 412.924 C 311.622 410.217 314.064 405.522 315.685 404.075 C 316.769 403.109 318.907 401.955 319.775 401.644 C 320.762 401.29 322.353 401.011 322.879 400.967 C 323.401 400.923 324.172 400.93 324.337 400.938 C 324.405 400.942 324.48 400.949 324.185 400.915 C 323.497 400.836 322.45 400.694 321.045 400.507 C 318.244 400.135 314.233 399.611 310.13 399.24 C 306.039 398.871 301.131 398.616 297.216 398.856 C 292.902 399.12 284.3 401.652 281.096 406.404 C 278.252 410.621 278.142 418.281 279.065 422.125 C 279.875 425.496 281.54 429.647 283.157 433.027 C 286.335 439.668 290.713 446.742 293.373 450.887 C 295.482 454.174 298.401 458.636 301.42 462.215 C 304.596 465.981 311.604 471.648 317.714 471.99 C 322.271 472.244 328.104 468.843 329.964 466.985 C 331.553 465.399 332.969 463.428 333.803 462.286 C 334.638 461.143 334.835 460.875 334.998 460.721 C 334.961 460.756 331.668 462.59 329.661 462.614 C 328.708 462.625 328.745 463.401 333.368 468.189 C 338.007 472.993 344.75 480.301 351.145 482.989 C 358.864 486.233 371.156 485.656 371.156 485.656 C 378.05 485.298 383.348 479.419 382.99 472.524 C 382.632 465.63 376.753 460.332 369.858 460.69 C 369.858 460.69 363.54 461.08 360.831 459.941 C 359.273 459.286 356.234 455.879 351.352 450.823 C 346.455 445.751 337.231 437.523 329.367 437.616 C 325.1 437.666 319.77 440.715 317.828 442.55 C 316.086 444.196 314.511 446.314 313.616 447.539 C 312.72 448.766 312.448 449.146 312.301 449.293 C 312.425 449.169 316.475 446.881 319.11 447.028 C 320.587 447.111 322.416 448.333 320.531 446.098 C 318.488 443.676 316.464 440.58 314.413 437.385 C 311.863 433.412 308.305 427.664 305.709 422.237 C 304.44 419.584 303.759 417.889 303.374 416.286 C 303.102 415.156 302.948 418.713 301.824 420.38 C 300.324 422.605 296.64 423.938 298.746 423.809 C 301.251 423.656 304.265 423.813 307.883 424.139 C 311.489 424.465 314.976 424.92 317.748 425.289 C 319.13 425.473 320.388 425.643 321.31 425.749 C 321.82 425.808 322.526 425.878 323.025 425.904 C 323.404 425.924 324.341 425.932 324.974 425.879 C 325.556 425.83 327.189 425.543 328.205 425.179 C 329.087 424.864 331.237 423.704 332.327 422.731 C 333.956 421.278 336.402 416.575 336.503 413.86 C 336.622 410.695 333.931 405.481 332.33 404.05 C 331.388 403.209 329.619 402.176 328.912 401.871 C 328.113 401.527 326.836 401.17 326.349 401.07 C 325.785 400.953 324.939 400.842 324.484 400.798 C 323.782 400.731 322.757 400.669 321.752 400.624 C 319.829 400.538 317.075 400.458 313.791 400.369 C 307.232 400.192 298.252 399.969 288.266 399.557 C 268.244 398.731 245.064 397.207 229.677 393.902 C 194.761 386.402 145.999 374.991 129.989 358.85 C 121.17 349.959 119.784 339.773 119.08 326.002 C 118.436 313.42 126.677 296.855 130.757 280.081 C 134.07 266.459 140.131 241.63 140.131 241.63 C 140.13 241.635 140.131 241.63 140.131 241.63 Z" style=""/>
  <path d="M 422.728 382.534 C 416.534 385.583 413.984 393.076 417.033 399.269 C 420.082 405.463 427.575 408.013 433.768 404.964 C 433.768 404.964 428.984 405.269 433.768 404.964 C 433.768 404.964 442.435 411.247 449.994 407.526 C 453.353 405.873 457.377 401.708 459.085 398.638 C 460.725 395.691 462.197 390.401 462.093 386.58 C 461.795 375.517 447.312 358.579 441.965 350.801 C 438.576 345.87 434.455 342.593 432.233 340.421 C 430.066 338.303 430.494 339.034 430.379 338.21 C 429.167 329.565 443.958 309.845 451.141 289.439 C 457.994 269.971 464.608 250.105 470.23 228.68 C 476.227 205.824 484.639 174.413 485.985 153.727 C 486.832 140.698 487.356 121.797 481.068 113.125 C 476.37 106.646 466.122 103.731 460.79 103.693 C 452.159 103.632 443.98 109.194 438.558 111.596 C 428.752 115.939 418.028 121.804 404.989 127.943 C 385.118 137.297 330.043 162.007 330.043 162.007 C 323.744 164.833 320.929 172.23 323.755 178.529 C 326.581 184.828 333.978 187.643 340.277 184.817 C 340.277 184.817 395.56 160.013 415.637 150.561 C 429.36 144.101 439.83 138.375 448.682 134.454 C 456.408 131.033 459.314 128.683 460.612 128.693 C 462.993 128.71 460.847 127.825 460.829 127.801 C 462.557 130.183 461.867 139.347 461.037 152.105 C 459.851 170.351 452.062 199.417 446.048 222.336 C 440.632 242.977 434.341 261.871 427.559 281.139 C 421.547 298.218 403.208 324.476 405.621 341.682 C 406.629 348.871 411.544 355.156 414.756 358.297 C 417.912 361.383 420.061 363.067 421.363 364.961 C 427.559 373.977 437.02 384.199 437.103 387.254 C 437.106 387.386 437.463 386.08 437.238 386.485 C 437.081 386.768 438.49 385.324 438.954 385.096 C 439.339 384.906 422.728 382.534 422.728 382.534 C 427.512 382.229 422.728 382.534 422.728 382.534 Z" style=""/>
  <path d="M 337.229 253.109 C 337.851 259.984 343.929 265.053 350.805 264.431 C 357.68 263.809 362.749 257.731 362.127 250.855 C 362.127 250.855 362.067 252.451 362.127 250.855 C 362.127 250.855 364.934 236.526 363.835 224.381 C 362.306 207.494 356.802 177.195 347.141 158.322 C 338.578 141.595 321.252 121.776 310.098 114.932 C 306.943 112.997 302.412 110.827 298.723 109.801 C 294.611 108.657 285.655 108.801 281.139 112.487 C 277.079 115.801 275.206 123.756 275.074 127.592 C 274.954 131.073 275.234 135.447 275.602 139.107 C 276.341 146.462 277.595 153.424 277.595 153.424 C 278.819 160.218 285.319 164.734 292.113 163.51 C 298.907 162.286 303.423 155.786 302.199 148.992 C 302.199 148.992 301.118 142.992 300.476 136.607 C 300.154 133.398 299.982 130.707 300.059 128.452 C 300.125 126.551 299.099 130.098 296.947 131.855 C 295.165 133.309 290.864 133.564 292.024 133.886 C 293.608 134.327 294.969 134.981 297.024 136.242 C 305.005 141.138 317.706 155.686 324.887 169.714 C 332.899 185.365 337.508 210.855 338.937 226.635 C 339.751 235.624 337.229 253.109 337.229 253.109 C 337.289 251.513 337.229 253.109 337.229 253.109 Z" style=""/>
  <path d="M 278.989 160.727 C 283.775 165.703 291.688 165.857 296.664 161.072 C 301.64 156.286 301.794 148.373 297.009 143.397 C 297.009 143.397 297.97 144.699 297.009 143.397 C 297.009 143.397 267.209 88.797 246.622 67.39 C 237.72 58.135 224.519 46.041 212.733 36.993 C 206.775 32.42 200.484 28.133 195.363 25.46 C 189.746 22.528 179.748 20.153 173.989 23.007 C 170.864 24.555 167.347 29.018 166.386 31.554 C 165.601 33.624 165.136 36.701 165.062 38.606 C 164.932 41.982 165.4 46.113 165.835 49.505 C 166.703 56.259 167.465 60.754 166.804 62.776 C 165.899 65.545 163.368 69.44 160.227 73.623 C 158.697 75.66 157.419 77.211 156.348 78.397 C 155.876 78.92 155.78 79.019 155.672 79.117 C 155.733 79.062 156.35 78.563 156.768 78.291 C 157.18 78.024 158.491 77.334 159.357 77.037 C 160.962 76.486 166.456 76.346 169.284 77.884 C 172.188 79.463 175.429 85.013 175.701 87.393 C 175.863 88.816 175.589 91.096 175.392 91.854 C 175.184 92.656 174.714 93.767 174.603 93.987 C 174.548 94.097 174.512 94.158 174.758 93.756 C 175.286 92.892 176.227 91.408 177.207 89.668 C 179.096 86.313 182.364 78.905 181.716 72.986 C 180.368 60.674 162.618 44.983 161.278 41.582 C 161.852 43.038 161.73 44.848 161.839 43.601 C 161.897 42.948 162.041 40.807 161.713 38.932 C 161.29 36.518 158.028 30.939 154.663 29.149 C 150.436 26.901 143.035 27.923 139.814 29.048 C 136.99 30.034 133.401 31.678 130.244 33.307 C 124.015 36.522 116.838 40.975 112.979 43.951 C 106.617 48.856 99.941 58.905 99.941 58.905 C 96.129 64.661 97.706 72.417 103.462 76.228 C 109.218 80.04 116.974 78.463 120.785 72.707 C 120.785 72.707 125.081 66.188 128.243 63.749 C 131.1 61.547 136.356 58.286 141.71 55.522 C 144.345 54.162 146.335 53.251 148.057 52.65 C 149.382 52.187 145.494 52.589 142.925 51.223 C 140.288 49.821 137.37 44.862 137.087 43.24 C 136.897 42.156 136.974 40.981 136.936 41.404 C 136.856 42.311 136.433 46.723 138.018 50.746 C 141.503 59.593 156.447 71.898 156.864 75.706 C 156.813 75.236 156.812 74.936 155.423 77.401 C 154.763 78.573 154.063 79.677 153.43 80.713 C 153.095 81.26 152.598 82.098 152.262 82.767 C 152.011 83.267 151.446 84.603 151.195 85.57 C 150.977 86.409 150.694 88.757 150.862 90.232 C 151.14 92.662 154.401 98.248 157.34 99.846 C 160.213 101.409 165.775 101.265 167.468 100.685 C 168.422 100.357 169.842 99.61 170.381 99.26 C 171.055 98.823 172.004 98.055 172.465 97.638 C 173.155 97.011 174.126 96.013 174.911 95.143 C 176.353 93.544 178.347 91.126 180.218 88.635 C 183.879 83.759 188.668 76.353 190.566 70.544 C 192.979 63.162 191.46 52.772 190.632 46.321 C 190.22 43.112 189.986 41.06 190.044 39.569 C 190.064 39.041 189.915 40.013 189.761 40.419 C 189.43 41.29 186.86 44.53 185.089 45.408 C 183.352 46.268 180.466 45.885 183.796 47.623 C 187.621 49.62 192.111 52.68 197.51 56.824 C 208.435 65.211 220.249 76.034 228.602 84.72 C 246.965 103.813 278.989 160.727 278.989 160.727 C 278.028 159.425 278.989 160.727 278.989 160.727 Z" style=""/>
  <path d="M 202.608 134.431 C 208.907 137.255 216.303 134.438 219.127 128.138 C 221.951 121.839 219.134 114.443 212.834 111.619 C 212.834 111.619 213.584 112.018 212.834 111.619 C 212.834 111.619 180.474 91.312 166.717 85.145 C 157.005 80.791 141.722 76.775 141.722 76.775 C 135.045 75.021 128.21 79.012 126.456 85.689 C 124.702 92.366 128.693 99.201 135.37 100.955 C 135.37 100.955 148.647 104.441 156.491 107.957 C 168.701 113.431 202.608 134.431 202.608 134.431 C 201.858 134.032 202.608 134.431 202.608 134.431 Z" style=""/>
  <path d="M 155.647 237.626 C 153.671 244.241 146.706 248.001 140.092 246.025 C 140.092 246.025 121.368 240.424 111.573 234.492 C 106.261 231.275 97.855 225.593 91.127 220.234 C 87.717 217.518 84.155 214.385 81.736 211.743 C 80.412 210.296 78.764 208.173 77.827 206.507 C 76.611 204.347 75.173 198.881 75.976 195.382 C 76.745 192.033 80.364 187.883 82.149 186.699 C 83.487 185.811 85.58 184.87 86.862 184.421 C 89.132 183.627 92.155 182.966 94.411 182.577 C 98.953 181.794 102.26 181.591 102.26 181.591 C 102.838 181.519 102.26 181.591 102.26 181.591 C 109.063 180.417 115.53 184.981 116.703 191.784 C 117.877 198.587 113.313 205.054 106.51 206.227 C 106.51 206.227 105.932 206.299 106.51 206.227 C 106.51 206.227 102.056 206.628 98.661 207.213 C 96.948 207.509 95.958 207.725 95.12 208.018 C 94.848 208.113 95.612 207.768 95.967 207.533 C 96.769 207.002 99.749 203.559 100.342 200.976 C 100.876 198.65 99.854 194.674 99.614 194.246 C 99.651 194.312 99.536 194.164 100.175 194.861 C 101.683 196.508 103.768 198.342 106.703 200.68 C 112.667 205.43 119.744 210.213 124.525 213.108 C 131.63 217.411 147.248 222.071 147.248 222.071 C 153.863 224.047 157.623 231.012 155.647 237.626 Z" style=""/>
  <path d="M 148.578 319.573 C 142.11 321.985 138.822 329.184 141.234 335.653 C 143.646 342.121 150.845 345.409 157.314 342.997 C 157.314 342.997 157.159 343.053 157.314 342.997 C 157.314 342.997 173.249 337.532 182.772 333.981 C 194.614 329.565 222.294 318.494 222.294 318.494 C 228.704 315.93 231.822 308.656 229.258 302.246 C 226.694 295.836 219.42 292.718 213.01 295.282 C 213.01 295.282 185.603 306.243 174.036 310.557 C 164.822 313.993 148.578 319.573 148.578 319.573 C 148.733 319.517 148.578 319.573 148.578 319.573 Z" style=""/>
  <path d="M 170.626 278.524 C 166.678 272.861 158.887 271.47 153.223 275.417 C 147.56 279.365 146.169 287.156 150.116 292.82 C 150.116 292.82 149.597 291.924 150.116 292.82 C 150.116 292.82 158.05 309.945 164.967 319.87 C 172.969 331.35 194.287 353.702 194.287 353.702 C 199.051 358.698 206.964 358.885 211.959 354.121 C 216.955 349.356 217.142 341.443 212.378 336.448 C 212.378 336.448 192.389 315.492 185.477 305.574 C 179.739 297.343 170.626 278.524 170.626 278.524 C 171.146 279.42 170.626 278.524 170.626 278.524 Z" style=""/>
  <path d="M 243.891 345.311 C 237.87 348.688 235.727 356.307 239.104 362.328 C 242.481 368.349 250.1 370.492 256.121 367.115 C 256.121 367.115 255.723 367.32 256.121 367.115 C 256.121 367.115 258.578 365.995 260.364 364.993 C 262.182 363.973 265.361 361.882 265.361 361.882 C 271.129 358.089 272.729 350.338 268.935 344.57 C 265.142 338.802 257.391 337.202 251.623 340.996 C 251.623 340.996 249.183 342.6 248.134 343.189 C 247.128 343.753 243.891 345.311 243.891 345.311 C 244.289 345.106 243.891 345.311 243.891 345.311 Z" style=""/>
  <path d="M 28.387 49.489 C 39.267 38.892 56.677 39.121 67.275 50.001 L 454.541 447.593 C 465.138 458.473 464.909 475.883 454.029 486.481 C 443.149 497.078 425.739 496.849 415.141 485.969 C 415.141 485.969 27.875 88.377 27.875 88.377 C 17.278 77.497 17.507 60.087 28.387 49.489 Z" style=""/>
</svg>