<?xml version="1.0" encoding="utf-8"?>
<svg xmlns="http://www.w3.org/2000/svg" viewBox="0 0 510 510">
  <path style="stroke-width: 60px; stroke-linecap: round; stroke-linejoin: round;" d="M 420.307 165.983 C 423.048 199.415 392.165 251.73 388.052 260.154 L 385.572 265.222 L 394.35 278.846 L 395.889 280.074 L 395.855 280.116 C 396.357 280.592 397.101 281.317 398.117 282.321 C 400.252 284.429 403.352 287.536 407.149 291.396 C 414.762 299.135 424.997 309.717 435.391 320.854 C 444.464 330.571 452.94 340.191 459.274 348.455 L 464.051 354.686 L 456.384 356.376 C 444.954 358.895 430.336 360.861 410.728 363.259 C 396.386 365.014 382.604 366.403 372.258 367.472 C 367.078 368.007 362.66 368.474 359.538 368.859 C 357.923 369.06 356.295 369.294 355.206 369.485 C 354.532 369.612 353.52 369.838 352.82 370.03 L 352.393 370.147 L 352.103 370.29 C 350.497 371.076 348.055 372.776 346.751 373.968 L 346.288 374.422 L 342.843 379 L 342.817 379.258 L 342.358 380.123 C 342.342 380.152 342.339 380.16 342.293 380.244 C 341.898 380.977 341.308 382.064 340.541 383.47 C 338.997 386.295 336.769 390.346 334.041 395.256 C 328.572 405.094 321.164 418.251 313.384 431.593 C 307.262 442.099 301.076 452.391 295.534 461.02 L 290.565 468.755 L 286.773 460.38 C 282.732 451.458 278.361 440.923 274.062 430.118 C 268.403 415.9 263.115 401.882 259.253 391.414 C 257.322 386.18 255.746 381.833 254.66 378.794 C 254.117 377.274 253.696 376.083 253.413 375.266 C 253.303 374.95 253.216 374.697 253.151 374.505 L 253.004 374.074 L 246.666 330.708 L 230.387 359.931 L 226.803 359.197 C 226.64 359.164 226.756 359.186 226.875 359.203 C 226.881 359.204 226.887 359.205 226.894 359.206 C 226.812 359.194 226.725 359.18 226.687 359.173 C 226.639 359.165 226.567 359.15 226.513 359.139 C 226.347 359.106 225.773 358.987 223.772 358.574 C 213.437 356.44 199.721 353.413 185.76 350.081 C 171.735 346.733 164.726 345.056 160.435 344.009 C 156.106 342.953 154.498 342.527 151.345 341.697 L 142.861 339.465 L 149.105 333.303 C 154.317 328.16 155.329 327.207 178 307.297 C 189.276 297.392 200.249 288.15 208.447 281.388 C 212.534 278.018 215.87 275.314 218.201 273.459 C 219.353 272.542 226.265 258.647 226.265 258.647 C 226.265 258.647 229.318 252.919 229.151 252.504 C 229.142 252.472 229.134 252.444 229.128 252.422 L 229.151 252.504 C 229.139 252.474 229.13 252.45 229.125 252.431 C 229.068 252.227 229.016 251.955 229.006 251.89 C 228.993 251.813 228.983 251.744 228.977 251.7 C 228.956 251.565 228.918 251.322 228.826 250.794 C 228.369 248.242 227.865 244.645 227.304 239.904 C 226.163 230.301 224.986 217.475 224.167 203.857 C 222.511 176.5 222.399 169.372 222.973 159.832 L 223.377 153.118 L 229.666 155.435 C 261.847 167.291 306.956 208.549 314.999 211.995 L 319.858 213.561 L 331.148 206.337 L 331.173 206.217 L 332.844 205.087 C 334.854 203.728 337.714 201.823 341.297 199.508 C 348.845 194.629 359.26 188.147 370.981 181.591 C 394.531 168.391 403.597 163.925 414.293 161.574 L 419.845 160.353 L 420.307 165.983 Z" transform="matrix(0.99862999, -0.05233601, 0.05233601, 0.99862999, -15.85741659, 16.30766312)"></path>
  <path d="M 450.207 163.532 C 450.879 186.151 442.725 214.774 434.3 234.321 C 429.479 245.506 424.477 255.4 420.742 262.508 C 422.819 264.576 425.486 267.258 428.536 270.358 C 436.237 278.187 446.742 289.051 457.319 300.38 C 466.683 310.418 476.098 321.147 483.082 330.202 L 487.859 336.433 C 494.099 344.572 495.749 355.335 492.233 364.97 C 488.718 374.604 480.524 381.775 470.509 383.983 L 462.841 385.673 C 450.182 388.41 434.157 390.616 414.372 393.037 C 399.712 394.827 385.649 396.248 375.34 397.313 C 371.983 397.66 369.073 397.964 366.661 398.232 C 365.107 401.074 362.903 405.078 360.262 409.832 C 354.753 419.742 347.197 433.159 339.304 446.697 C 333.079 457.378 326.552 468.227 320.775 477.235 L 315.806 484.97 C 309.865 494.218 299.342 499.476 288.379 498.675 C 277.416 497.874 267.77 491.142 263.236 481.129 L 259.445 472.757 C 255.213 463.395 250.569 452.218 246.188 441.211 C 240.431 426.74 235.007 412.368 231.107 401.798 C 229.313 396.934 227.796 392.757 226.701 389.704 C 225.924 389.608 225.145 389.48 224.368 389.321 L 220.85 388.6 C 220.802 388.591 220.702 388.57 220.611 388.551 C 220.569 388.543 220.541 388.538 220.53 388.536 C 220.178 388.465 219.694 388.365 217.705 387.954 C 207.171 385.778 193.005 382.65 178.794 379.261 C 164.762 375.911 157.682 374.217 153.325 373.154 C 148.71 372.025 146.839 371.533 143.71 370.709 L 135.228 368.478 C 124.805 365.736 116.654 357.613 113.875 347.2 C 111.096 336.786 114.117 325.683 121.788 318.112 L 128.034 311.949 C 133.498 306.563 135.147 305.016 158.203 284.757 C 169.715 274.649 181.045 265.103 189.361 258.242 C 192.915 255.313 196 252.805 198.341 250.927 C 198.253 250.759 198.266 250.38 198.34 249.887 C 198.067 247.916 197.788 245.747 197.513 243.435 C 196.33 233.434 195.076 219.75 194.221 205.664 C 192.54 177.641 192.428 168.707 193.027 158.03 L 193.431 151.316 C 194.001 141.842 199.02 133.197 206.965 128.005 C 214.91 122.813 224.843 121.687 233.748 124.968 L 240.037 127.285 C 270.372 139.431 303.347 166.551 318.563 178.543 C 320.368 177.341 322.555 175.902 325.014 174.311 C 332.779 169.295 344.007 162.323 356.329 155.413 C 380.574 141.848 393.745 135.82 407.849 132.274 L 413.401 131.053 C 421.858 129.193 430.705 131.078 437.67 136.223 C 444.634 141.367 449.036 149.27 449.745 157.899 Z M 378.704 211.716 C 370.507 216.479 363.34 220.979 357.583 224.703 C 354.253 226.853 351.691 228.559 349.78 229.85 C 348.993 230.474 348.171 231.06 347.317 231.607 L 336.027 238.831 C 328.484 243.657 319.179 244.862 310.655 242.115 L 305.796 240.549 C 297.988 236.622 276.085 218.177 254.171 203.015 C 254.95 215.781 256.023 227.388 257.094 236.364 C 257.614 240.787 257.989 243.517 258.356 245.506 C 258.491 246.291 258.598 246.942 258.62 247.089 C 258.609 247.008 258.677 247.481 258.636 247.212 C 258.534 246.672 258.293 245.581 258.069 244.582 C 257.626 243.199 257.111 241.636 257.005 241.362 C 258.084 247.675 259.018 256.293 258.543 258.628 C 258.279 259.923 257.705 261.884 257.445 262.64 C 257.097 263.652 256.511 265.084 256.217 265.751 C 255.737 266.838 255.055 268.245 254.6 269.154 C 253.685 270.984 252.739 272.758 252.739 272.758 C 252.739 272.758 242.125 290.959 236.885 296.931 C 234.659 298.701 231.522 301.244 227.533 304.534 C 221.182 309.771 213.266 316.413 204.809 323.726 C 208.29 324.523 211.685 325.286 214.945 326.006 L 220.458 316.109 C 226.716 304.875 239.436 298.879 252.083 301.201 C 264.73 303.523 274.491 313.646 276.351 326.37 L 282.277 366.918 C 282.46 367.435 282.671 368.029 282.911 368.702 C 283.974 371.675 285.497 375.875 287.399 381.03 C 289.689 387.238 292.455 394.628 295.5 402.557 C 300.108 394.486 304.339 386.942 307.819 380.683 C 310.515 375.831 312.686 371.883 314.211 369.093 C 314.656 368.277 315.031 367.588 315.34 367.017 C 316.272 364.877 317.456 362.844 318.872 360.962 L 322.317 356.384 C 323.22 355.184 324.212 354.053 325.284 353.002 L 325.747 352.548 C 328.601 350.116 335.333 345.292 338.915 343.344 L 339.125 343.24 C 340.837 342.396 342.625 341.718 344.465 341.214 L 344.892 341.097 C 346.291 340.731 348.485 340.232 349.651 340.004 C 351.197 339.74 353.936 339.327 355.833 339.089 C 359.214 338.674 363.96 338.169 369.176 337.631 C 379.338 336.581 392.486 335.258 406.188 333.591 C 398.612 325.595 391.482 318.248 385.762 312.434 C 382.04 308.65 379.095 305.698 377.039 303.669 C 376.423 303.06 375.983 302.627 375.653 302.307 L 375.639 302.296 C 373.093 300.265 370.895 297.832 369.131 295.095 L 360.353 281.471 C 354.663 272.638 354.007 261.473 358.625 252.036 L 361.105 246.968 C 363.586 241.966 371.614 227.953 378.704 211.716 Z" style="" transform="matrix(0.9986300468444824, -0.05233601853251457, 0.05233601853251457, 0.9986300468444824, -15.857417342922346, 16.307663206870302)"></path>
  <path style="stroke-linejoin: round; stroke-linecap: round; stroke-width: 60px;" d="M 310.905 131.103 C 296.941 113.299 168.059 61.673 139.47 53.178 C 94.71 39.878 43.525 35.261 34.531 36.554 L 93.754 135.259 L 158.172 244.354 C 157.672 217.52 125.387 115.664 173.757 93.699 C 222.626 71.508 311.36 130.965 310.905 131.103 Z"></path>
  <path d="M 330.852 108.684 C 331.467 109.264 333.354 111.113 334.466 112.524 C 334.528 112.603 334.595 112.692 334.666 112.79 C 336.987 115.809 338.649 119.143 339.666 122.613 C 339.776 122.956 339.875 123.292 339.959 123.62 C 340.028 123.889 340.1 124.213 340.171 124.578 C 340.588 126.469 340.82 128.389 340.867 130.31 C 340.897 130.876 340.909 131.404 340.897 131.86 C 340.888 132.236 340.856 132.671 340.804 133.148 C 340.58 136.362 339.841 139.541 338.596 142.55 C 338.405 143.067 338.21 143.542 338.013 143.956 C 337.827 144.348 337.597 144.775 337.331 145.226 C 335.836 148.019 333.873 150.617 331.45 152.9 C 331.117 153.214 330.778 153.519 330.434 153.816 C 330.004 154.22 329.596 154.574 329.222 154.862 C 328.866 155.137 328.449 155.421 327.991 155.709 C 325.52 157.429 322.848 158.735 320.071 159.627 C 319.908 159.694 319.755 159.755 319.612 159.812 C 309.445 162.895 298.547 160.347 290.834 153.402 C 289.46 152.497 271.94 141.314 247.995 131.169 C 235.038 125.68 223.093 121.66 210.615 119.704 C 198.451 117.797 192.537 116.874 186.161 121.015 C 183.524 121.619 184.794 121.25 183.085 123.504 C 181.299 125.859 180.932 126.672 179.67 131.049 C 176.931 140.54 176.625 150.888 177.573 165.221 C 179.48 194.055 187.455 226.954 188.167 243.795 C 188.421 257.42 179.459 269.505 166.348 273.219 C 153.236 276.932 139.268 271.342 132.339 259.608 L 67.975 150.603 L 8.806 51.989 C 3.638 43.375 3.124 32.745 7.437 23.673 C 11.75 14.6 20.319 8.289 30.262 6.859 C 42.738 5.474 100.33 10.56 148.015 24.421 C 163.377 29.03 204.374 44.636 242.476 61.069 C 273.912 74.628 307.651 91.844 325.406 104.814 C 327.324 105.877 329.152 107.167 330.852 108.684 Z M 137.851 84.163 C 135.108 83.23 132.776 82.479 130.925 81.935 C 89.09 69.196 103.591 74.602 90.886 72.17 L 119.479 119.824 L 120.322 121.253 C 120.819 118.91 121.384 116.625 122.021 114.415 C 124.526 105.734 129.569 94.777 135.274 87.253 C 136.048 86.233 136.912 85.199 137.851 84.163 Z" style=""></path>
</svg>