<?xml version="1.0" encoding="utf-8"?>
<svg xmlns="http://www.w3.org/2000/svg" viewBox="0 0 500 500" xmlns:bx="https://boxy-svg.com">
  <path style="stroke-width: 60px;stroke-linecap: round;" d="M 255.011 127.976 C 255.011 127.976 282.2710241136025 78.09909768439263 298.671 62.487 C 311.68146372046596 50.10157748900515 325.86550268258867 42.00547958507545 341.189 37.07 C 356.5336557289583 32.127705592819616 374.98923423443694 29.07309457754232 390.685 32.883 C 407.3019062469853 36.916498088622184 425.5760666965154 48.26901089146945 437.836 62.487 C 451.61819583245955 78.47037489991475 462.35591883247236 103.33944776117005 466.076 126.929 C 470.2102774344269 153.14502839220876 470.7877510472029 179.28534168971575 457.384 213.391 C 431.6967273967271 278.75190824464914 298.1056714007111 451.04171073780134 264.562 467.704 C 256.3557904015472 471.78030507830306 253.87115694000866 471.5914874933498 245.461 467.704 C 211.48923947658605 452.00098814137607 71.66626235136538 292.1571783556129 43.534 230.304 C 29.03561792244514 198.42703961514496 29.530499958940158 173.50371058790424 31.255 148.442 C 32.7611404649874 126.55365234009078 38.30276427269267 105.57701062953683 49.086 87.87 C 60.29743952173249 69.45984150916829 80.53008095487007 49.45911868361427 98.415 40.694 C 113.60313740652136 33.25053175643246 130.180112244303 30.46319006809809 147.099 33.422 C 167.91516029743178 37.06237297968149 196.145760287421 55.49816343696157 212.685 68.788 C 225.383225739205 78.99145237431036 233.56194334870213 91.9320245989182 241.367 102.053 C 247.42853201848712 109.91311161645787 251.73884825620826 123.87424047393351 256.375 123.883 C 260.35782855797027 123.89052513992205 267.512 107.814 267.512 107.814" bx:d="M 255.011 127.976 R 298.671 62.487 R 341.189 37.07 R 390.685 32.883 R 437.836 62.487 R 466.076 126.929 R 457.384 213.391 R 264.562 467.704 R 245.461 467.704 R 43.534 230.304 R 31.255 148.442 R 49.086 87.87 R 98.415 40.694 R 147.099 33.422 R 212.685 68.788 R 241.367 102.053 R 256.375 123.883 R 267.512 107.814 1@a63a478c"/>
</svg>