<svg viewBox="0 0 500 500" width="500" height="500" xmlns="http://www.w3.org/2000/svg">
  <path d="M 263.458 8.427 L 295.482 39.957 C 299.158 38.062 303.82 36.661 307.393 36.218 L 355.548 36.218 C 360.829 36.873 368.487 39.619 371.83 42.962 C 375.173 46.305 377.919 53.963 378.574 59.244 L 378.574 121.766 L 477.284 218.953 C 481.622 223.225 482.948 229.695 480.64 235.328 C 478.332 240.962 472.848 244.642 466.76 244.642 L 39.107 244.642 C 33.019 244.642 27.535 240.962 25.227 235.328 C 22.919 229.695 24.245 223.225 28.583 218.953 L 242.41 8.427 C 248.249 2.679 257.619 2.679 263.458 8.427 Z" style="" transform="matrix(1, 0, 0, 1, 5.684341886080802e-14, 0)"/>
  <g style="" transform="matrix(1, 0, 0, 1, 1.90442803359673, 1.5100310073797516)">
    <path d="M 90.7 200.267 L 416.313 200.267 C 420.746 200.267 424.339 203.86 424.339 208.293 L 424.339 474.285 C 424.339 478.718 420.746 482.311 416.313 482.311 L 90.7 482.311 C 86.267 482.311 82.674 478.718 82.674 474.285 L 82.674 208.293 C 82.674 203.86 86.267 200.267 90.7 200.267 Z M 172.02 256.073 C 169.163 259.622 165.824 267.122 165.128 272.488 L 165.128 402.056 C 165.838 407.457 168.884 414.672 171.727 418.19 C 175.276 421.047 182.776 424.386 188.142 425.082 L 321.15 425.082 C 326.551 424.372 333.766 421.326 337.284 418.483 C 340.141 414.934 343.48 407.434 344.176 402.068 L 344.176 272.5 C 343.466 267.099 340.42 259.884 337.577 256.366 C 334.028 253.509 326.528 250.17 321.162 249.474 L 188.154 249.474 C 182.753 250.184 175.538 253.23 172.02 256.073 Z M 195.128 279.474 L 314.176 279.474 L 314.176 395.082 L 195.128 395.082 Z" style="fill-rule: nonzero; stroke-miterlimit: 4.86; paint-order: fill markers; stroke-linecap: round; stroke-linejoin: round; stroke-width: 30px;"/>
    <path d="M 90.7 185.267 L 416.313 185.267 C 421.594 185.922 429.252 188.668 432.595 192.011 C 435.938 195.354 438.684 203.012 439.339 208.293 L 439.339 474.285 C 438.684 479.566 435.938 487.224 432.595 490.567 C 429.252 493.91 421.594 496.656 416.313 497.311 L 90.7 497.311 C 85.419 496.656 77.761 493.91 74.418 490.567 C 71.075 487.224 68.329 479.566 67.674 474.285 L 67.674 208.293 C 68.329 203.012 71.075 195.354 74.418 192.011 C 77.761 188.668 85.419 185.922 90.7 185.267 Z M 97.674 467.311 L 409.339 467.311 L 409.339 215.267 L 97.674 215.267 Z" style=""/>
  </g>
</svg>