<?xml version="1.0"?>
<svg viewBox="0 0 512 512" width="512" height="512" xmlns="http://www.w3.org/2000/svg" xmlns:svg="http://www.w3.org/2000/svg">
 <!-- Created with SVG-edit - https://github.com/SVG-Edit/svgedit-->
 <g class="layer" display="inline">
  <path d="m125.49,342.06c-27.52,-24.97 47.38,-86.98 59.45,-114.04c12.07,-27.07 45.07,-143.56 42.46,-136.6c-2.61,6.97 17.86,-61.06 59.88,-61.42c42.03,-0.37 70.11,59.04 71.86,67.84c1.74,8.8 24.39,87.46 35.93,113.68c11.54,26.22 82.22,96.78 68.59,127.43c-13.63,30.65 -310.64,28.09 -338.16,3.12zm218.84,82.84l-39.65,1.68l31.12,34.27l8.53,-35.95z" fill="none" id="svg_1" stroke-linecap="round" stroke-linejoin="round" stroke-width="60" transform="rotate(37.9428 292.429 245.424)"/>
  <path d="m424.4,69.4l22.6,-26.4l-22.6,26.4z" fill="none" id="svg_10" stroke-linecap="round" stroke-linejoin="round" stroke-width="60"/>
 </g>
</svg>