<?xml version="1.0" encoding="utf-8"?>
<svg viewBox="0 0 100 100" width="100" height="100" xmlns="http://www.w3.org/2000/svg">
  <defs/>
  <g style="transform-origin: 50px 50px;">
    <path d="M 50 95.5 C 47.136 95.5 44.448 94.297 42.575 92.425 C 40.703 90.552 39.5 87.864 39.5 85 C 39.5 82.136 40.703 79.448 42.575 77.575 C 44.448 75.703 47.136 74.5 50 74.5 C 52.864 74.5 55.552 75.703 57.425 77.575 C 59.297 79.448 60.5 82.136 60.5 85 C 60.5 87.864 59.297 90.552 57.425 92.425 C 55.552 94.297 52.864 95.5 50 95.5 Z" data-idx="18" opacity="0.980005" style="">
    </path>
    <path d="M 76.744 86.81 C 74.427 88.494 71.545 89.1 68.93 88.687 C 66.314 88.272 63.761 86.804 62.078 84.487 C 60.394 82.17 59.788 79.289 60.201 76.673 C 60.616 74.058 62.084 71.504 64.401 69.821 C 66.718 68.137 69.6 67.531 72.215 67.944 C 74.831 68.359 77.384 69.827 79.067 72.144 C 80.751 74.461 81.357 77.343 80.944 79.958 C 80.529 82.574 79.061 85.127 76.744 86.81 Z" data-idx="15" opacity="0.880005" style="">
    </path>
    <path d="M 93.273 64.06 C 92.388 66.784 90.413 68.969 88.054 70.172 C 85.694 71.373 82.766 71.687 80.042 70.802 C 77.318 69.917 75.134 67.942 73.931 65.583 C 72.729 63.223 72.416 60.295 73.301 57.571 C 74.186 54.847 76.161 52.662 78.52 51.46 C 80.88 50.258 83.808 49.944 86.532 50.83 C 89.255 51.715 91.44 53.689 92.643 56.048 C 93.845 58.408 94.158 61.336 93.273 64.06 Z" data-idx="12" opacity="0.780005" style="">
    </path>
    <path d="M 93.273 35.94 C 94.158 38.664 93.845 41.592 92.643 43.952 C 91.44 46.311 89.255 48.286 86.532 49.171 C 83.808 50.056 80.88 49.742 78.52 48.54 C 76.161 47.338 74.186 45.153 73.301 42.429 C 72.416 39.705 72.729 36.777 73.931 34.417 C 75.134 32.058 77.318 30.083 80.042 29.198 C 82.766 28.313 85.694 28.627 88.054 29.828 C 90.413 31.031 92.388 33.216 93.273 35.94 Z" data-idx="9" opacity="0.680005" style="">
    </path>
    <path d="M 50 5 H 50 A 10 10 0 0 1 60 15 V 15 A 10 10 0 0 1 50 25 H 50 A 10 10 0 0 1 40 15 V 15 A 10 10 0 0 1 50 5 Z" data-idx="6" opacity="0.580005" transform="matrix(0.809017, 0.587785, -0.587785, 0.809017, 38.938412, -19.840113)" style="">
    </path>
    <path d="M 50 5 H 50 A 10 10 0 0 1 60 15 V 15 A 10 10 0 0 1 50 25 H 50 A 10 10 0 0 1 40 15 V 15 A 10 10 0 0 1 50 5 Z" data-idx="3" opacity="0.480005">
      <title>6</title>
    </path>
    <path d="M 50 5 H 50 A 10 10 0 0 1 60 15 V 15 A 10 10 0 0 1 50 25 H 50 A 10 10 0 0 1 40 15 V 15 A 10 10 0 0 1 50 5 Z" data-idx="30" opacity="0.380005" transform="matrix(0.809017, -0.587785, 0.587785, 0.809017, -19.840113, 38.938412)">
    </path>
    <path d="M 50 5 H 50 A 10 10 0 0 1 60 15 V 15 A 10 10 0 0 1 50 25 H 50 A 10 10 0 0 1 40 15 V 15 A 10 10 0 0 1 50 5 Z" data-idx="27" opacity="0.280005" transform="matrix(0.309017, -0.951057, 0.951057, 0.309017, -13.003679, 82.101976)">
    </path>
    <path d="M 50 5 H 50 A 10 10 0 0 1 60 15 V 15 A 10 10 0 0 1 50 25 H 50 A 10 10 0 0 1 40 15 V 15 A 10 10 0 0 1 50 5 Z" data-idx="24" opacity="0.180005" transform="matrix(-0.309017, -0.951057, 0.951057, -0.309017, 17.898024, 113.003679)">
    </path>
    <path d="M 50 5 H 50 A 10 10 0 0 1 60 15 V 15 A 10 10 0 0 1 50 25 H 50 A 10 10 0 0 1 40 15 V 15 A 10 10 0 0 1 50 5 Z" data-idx="21" opacity="0.080005" transform="matrix(-0.809017, -0.587785, 0.587785, -0.809017, 61.061589, 119.840113)">
    </path>
    <animateTransform id="anim1" type="rotate" additive="sum" attributeName="transform" values="0;40;80;120;160;200;240;280;320" begin="0;anim1.end" dur="0.5s" fill="freeze" calcMode="discrete"/>
  </g>
</svg>