<?xml version="1.0" encoding="utf-8"?>
<svg viewBox="0 0 500 500" xmlns="http://www.w3.org/2000/svg">
  <path d="M 68.328 76.009 L 431.898 76.009 C 440.135 76.283 450.462 78.204 457.526 81.192 C 464.661 84.209 473.091 89.938 478.44 95.288 C 483.79 100.637 489.519 109.067 492.536 116.202 C 495.524 123.266 497.445 133.593 497.719 141.83 L 497.719 354.87 C 497.445 363.107 495.524 373.434 492.536 380.498 C 489.519 387.633 483.79 396.063 478.44 401.413 C 473.091 406.762 464.661 412.491 457.526 415.508 C 450.462 418.496 440.135 420.417 431.898 420.691 L 68.328 420.691 C 60.091 420.417 49.764 418.496 42.7 415.508 C 35.565 412.491 27.135 406.762 21.786 401.413 C 16.436 396.063 10.707 387.633 7.69 380.498 C 4.702 373.434 2.781 363.107 2.507 354.87 L 2.507 141.83 C 2.781 133.593 4.702 123.266 7.69 116.202 C 10.707 109.067 16.436 100.637 21.786 95.288 C 27.135 89.938 35.565 84.209 42.7 81.192 C 49.764 78.204 60.091 76.283 68.328 76.009 Z M 62.177 127.242 C 59.544 128.356 59.178 128.605 57.141 130.643 C 55.103 132.68 54.854 133.046 53.74 135.679 C 52.597 138.383 52.233 138.795 52.507 141.83 L 52.507 354.87 C 52.233 357.905 52.597 358.317 53.74 361.021 C 54.854 363.654 55.103 364.02 57.141 366.057 C 59.178 368.095 59.544 368.344 62.177 369.458 C 64.881 370.601 65.293 370.965 68.328 370.691 L 431.898 370.691 C 434.933 370.965 435.345 370.601 438.049 369.458 C 440.682 368.344 441.048 368.095 443.085 366.057 C 445.123 364.02 445.372 363.654 446.486 361.021 C 447.629 358.317 447.993 357.905 447.719 354.87 L 447.719 141.83 C 447.993 138.795 447.629 138.383 446.486 135.679 C 445.372 133.046 445.123 132.68 443.085 130.643 C 441.048 128.605 440.682 128.356 438.049 127.242 C 435.345 126.099 434.933 125.735 431.898 126.009 L 68.328 126.009 C 65.293 125.735 64.881 126.099 62.177 127.242 Z" style=""/>
  <path d="M 35.161 113.766 L 252.026 260.469 L 458.686 115.041"/>
</svg>