<?xml version="1.0" encoding="utf-8"?>
<svg xmlns="http://www.w3.org/2000/svg" viewBox="0 0 500 500" xmlns:bx="https://boxy-svg.com">
  <path style="fill: none; stroke-width: 60px; stroke-linecap: round; stroke-linejoin: round;" d="M 250.661 275.668 L 467.914 35.305" bx:d="M 250.661 275.668 R 467.914 35.305 1@be729901"/>
  <path style="fill: none; stroke-width: 60px; stroke-linecap: round; stroke-linejoin: round;" d="M 356.398 31.726 L 468.491 31.415" bx:d="M 356.398 31.726 R 468.491 31.415 1@fa06d40b"/>
  <path style="fill: none; stroke-width: 60px; stroke-linecap: round; stroke-linejoin: round;" d="M 469.225 158.953 L 468.913 32.149" bx:d="M 469.225 158.953 R 468.913 32.149 1@303668e9"/>
  <path style="fill: none; stroke-width: 60px; stroke-linecap: round; fill: none;" d="M 280.98 58.416 L 247.31883333333334 58.416 C 213.6576666666667 58.416 146.33533333333335 58.416 106.616 63.96283333333333 C 66.89666666666666 69.50966666666666 54.78033333333334 80.60333333333334 48.33133333333333 148.7495 C 41.882333333333335 216.89566666666667 41.10066666666667 342.0943333333333 42.663999999999994 405.288 C 44.22733333333334 468.4816666666666 48.13566666666666 469.6703333333333 84.09366666666666 470.859 C 120.05166666666666 472.04766666666666 188.05933333333334 473.23633333333333 249.22716666666668 474.02866666666665 C 310.395 474.82099999999997 364.72299999999996 475.21700000000004 395.79566666666665 472.8398333333333 C 426.86833333333334 470.4626666666666 434.6856666666667 465.3123333333333 438.39900000000006 423.74466666666666 C 442.1123333333333 382.17699999999996 441.72166666666664 304.192 441.5263333333334 265.1995 L 441.331 226.207" bx:d="M 280.98 58.416 U 79.013 58.416 U 42.664 91.697 U 40.319 467.293 U 52.044 470.859 U 256.067 474.425 U 419.051 475.613 U 442.503 460.162 U 441.331 226.207 1@aa7b2283"/>
</svg>