<?xml version="1.0" encoding="utf-8"?>
<svg xmlns="http://www.w3.org/2000/svg" viewBox="0 0 500 500">
  <g style="transform-origin: 211.511px 211.863px;" transform="matrix(0.997564, 0.069756, -0.069756, 0.997564, -0.000001, 0.000001)">
    <path d="M 35.265 137.635 L 202.703 89.624 L 370.14 41.612 L 387.756 98.472 M 298.513 326.731 L 201.941 354.423 L 105.368 382.114 L 70.316 259.875 L 35.265 137.635" style="fill: none; stroke-linecap: round; stroke-linejoin: round; stroke-width: 60px;"/>
    <path style="stroke-width: 20px; fill: none; stroke-linejoin: round; stroke-linecap: round;" d="M 134.78 322.465 C 130.897 320.135 136.02 309.588 143.911 299.585 C 151.802 289.582 162.461 280.123 169.649 279.968 C 173.85 277.966 201.337 277.906 227.652 279.33 C 253.966 280.754 279.108 283.662 278.616 287.595 L 296.596 237.47 L 314.576 187.345 C 343.452 198.787 345.086 199.332 345.086 199.332"/>
    <path style="stroke-width: 20px; fill: none; stroke-linejoin: round; stroke-linecap: round;" d="M 265.54 115.427 C 259.744 118.391 267.955 126.365 278.277 133.288 C 288.599 140.212 301.032 146.085 303.679 144.847 C 302.854 146.497 315.214 149.018 328.275 150.138 C 341.336 151.259 355.097 150.979 357.073 147.027"/>
  </g>
  <path style="fill: none; stroke-linecap: round; stroke-linejoin: round; stroke-width: 20px; transform-box: fill-box; transform-origin: 50% 50%;" d="M 363.459 272.369 L 363.119 397.007 C 366.877 445.748 414.427 438.674 411.566 401.559 L 413.451 232.99 C 405.233 167.148 343.37 192.166 348.259 231.314 L 347.605 415.311 C 342.3 465.798 430.388 470.912 436.293 412.874 L 481.297 310.377" transform="matrix(0.965926, 0.258819, -0.258819, 0.965926, -0.000003, -0.000003)"/>
</svg>