<?xml version="1.0" encoding="utf-8"?>
<svg xmlns="http://www.w3.org/2000/svg" viewBox="0 0 500 500" xmlns:bx="https://boxy-svg.com">
  <path style="stroke-width: 60px; stroke-linejoin: round; stroke-linecap: round; fill: none;" d="M 57.544 333.263 L 56.17516666666666 282.61016666666666 C 54.80633333333333 231.9573333333333 52.06866666666667 130.65166666666667 115.38466666666666 81.02550000000001 C 178.70066666666665 31.399333333333335 308.07033333333334 33.452666666666666 372.75516666666664 34.47933333333334 L 437.44 35.506" bx:d="M 57.544 333.263 U 49.331 29.346 U 437.44 35.506 1@c1917283"/>
  <path style="fill: none; stroke-width: 60px; stroke-linejoin: round; stroke-linecap: round; transform-box: fill-box; transform-origin: 50% 50%;" d="M 33.929 341.476 L 58.57 396.92 L 88.347 340.449" transform="matrix(0.999391, -0.034899, 0.034899, 0.999391, -0.000001, 0)"/>
  <path style="fill: none; stroke-linejoin: round; stroke-linecap: round; stroke-width: 60px;" d="M 56.517 466.74 L 124.45333333333333 468.45133333333325 C 192.38966666666667 470.16266666666667 328.26233333333334 473.58533333333327 393.46066666666667 417.79866666666663 C 458.65899999999993 362.012 453.183 247.016 450.44499999999994 189.518 L 447.707 132.02" bx:d="M 56.517 466.74 U 464.135 477.008 U 447.707 132.02 1@f61014be"/>
  <path style="fill: none; stroke-width: 60px; stroke-linejoin: round; stroke-linecap: round; transform-box: fill-box; transform-origin: 50% 50%;" d="M 414.852 99.164 L 439.493 154.608 L 469.27 98.137" transform="matrix(-0.999391, 0.034899, -0.034899, -0.999391, -0.000006, -0.000001)"/>
</svg>