<?xml version="1.0" encoding="utf-8"?>
<svg xmlns="http://www.w3.org/2000/svg" viewBox="0 0 500 500" xmlns:bx="https://boxy-svg.com">
  <path style="stroke-width: 60px; stroke-linecap: round;" d="M 30.15 469.894 L 215.624 293.841" bx:d="M 30.15 469.894 R 215.624 293.841 1@34f0601f"/>
  <path d="M 249.356 316.443 C 214.307 288.571 175.863 251.471 170 180 C 163.227 97.434 237.157 30 320 30 C 402.843 30 470 97.157 470 180 C 470 220.989 467.845 232.628 442.219 266.846" style="stroke: rgb(0, 0, 0); fill: none; stroke-width: 60px; stroke-linejoin: round;"/>
  <path style="stroke-width: 30px; stroke: rgb(0, 0, 0); transform-box: fill-box; transform-origin: 50% 50%;" d="M 260.307 374.089 C 260.307 374.089 306.34488698639404 344.72100534674007 321.594 322.189 C 338.6340178101457 297.01076359607475 338.15514559903613 229.2636634151177 353.31 227.055 C 369.04042688165646 224.76245284392238 392.9557480009092 294.6998199231048 415.314 315.536 C 432.4423449915062 331.49830692259485 468.57951700538956 334.5980943513914 469.675 348.18 C 471.03449916560066 365.03520404003666 411.70353804422047 387.5120409643932 395.094 411.223 C 380.95160988731374 431.4119800748647 381.1269787017899 476.6847484869193 370.612 477.655 C 359.2377951910344 478.70453511927803 347.282646805943 423.8549261488899 328.225 406.477 C 310.0622892585316 389.9151312056607 260.307 374.089 260.307 374.089 C 260.30699999999996 374.08899999999994 260.3070000000001 374.08900000000006 260.307 374.089" bx:d="M 260.307 374.089 R 321.594 322.189 R 353.31 227.055 R 415.314 315.536 R 469.675 348.18 R 395.094 411.223 R 370.612 477.655 R 328.225 406.477 R 260.307 374.089 Z 1@667bfd26" transform="matrix(0.990268, 0.139173, -0.139173, 0.990268, 0.013753, 1.125031)"/>
  <path style="fill: none; stroke-linecap: round; stroke-width: 40px;" d="M 242.534 324.251 C 242.534 324.251 259.0223880949399 316.9366972717273 267.023 311.832 C 275.724415753107 306.2801629927635 284.34131131567176 301.93885468513906 292.551 291.752 C 305.9452789378316 275.1319333448082 314.9494736202164 232.49163370765277 330.341 213.994 C 341.9521244770649 200.0396771985387 356.5813477063156 185.65990378140577 369.946 184.802 C 382.547105704242 183.99310980248458 398.6958342912452 196.69178812354443 408.184 206.039 C 416.736009677372 214.46396314647367 419.55954943009425 226.08173378005822 425.9 236.842 C 432.97114812815647 248.84232008777857 448.737 274.681 448.737 274.681" bx:d="M 242.534 324.251 R 267.023 311.832 R 292.551 291.752 R 330.341 213.994 R 369.946 184.802 R 408.184 206.039 R 425.9 236.842 R 448.737 274.681 1@c4ee6a12"/>
</svg>