<svg xmlns="http://www.w3.org/2000/svg" viewBox="0 0 500 500">
  <path style="stroke-width: 60px; stroke-linejoin: round; stroke-linecap: round; transform-box: fill-box; transform-origin: 50% 50%;" d="M 56.047 255.815 C 122.309 246.995 175.065 89.82 175.801 32.346 C 175.598 88.413 226.931 250.924 290.925 254.551 C 227.933 251.369 174.906 380.912 175.786 466.655 C 172.801 380.727 121.091 253.228 56.047 255.815 Z" transform="matrix(0.997564, -0.069756, 0.069756, 0.997564, -0.000001, 0.000001)"></path>
  <path style="stroke-linejoin: round; stroke-linecap: round; transform-box: fill-box; transform-origin: 50% 50%; stroke-width: 45px;" d="M 341.319 164.599 C 370.369 161.899 383.715 84.74 381.266 62.012 C 382.286 85.053 411.403 159.848 439.253 158.77 C 412.586 159.432 397.178 233.325 398.017 252.029 C 396.535 233.535 370.276 163.553 341.319 164.599 Z" transform="matrix(0.996195, 0.087155, -0.087155, 0.996195, 0, 0.000003)"></path>
  <path style="stroke-linejoin: round; stroke-linecap: round; stroke-width: 30px;" d="M 294.28 390.059 C 303.577 381.379 331.203 332.766 326.167 317.636 C 324.226 335.086 357.115 369.555 370.322 384.342 C 364.313 393.487 339.093 441.976 338.433 451.047 C 338.204 454.195 309.878 389.792 294.28 390.059 Z"></path>
</svg>