<?xml version="1.0" encoding="utf-8"?>
<svg xmlns="http://www.w3.org/2000/svg" viewBox="0 0 500 500" style="" xmlns:bx="https://boxy-svg.com">
  <defs>
    <filter id="blur-filter-0" bx:preset="gaussian-blur 1 15" color-interpolation-filters="sRGB" x="-50%" y="-50%" width="200%" height="200%">
      <title>Gaussian blur</title>
      <feGaussianBlur stdDeviation="15 15" edgeMode="none"/>
    </filter>
  </defs>
  <path style="stroke-linecap: round; stroke-linejoin: round; stroke-width: 60px; filter: url(&quot;#blur-filter-0&quot;); fill: rgb(255, 0, 0); stroke: rgb(255, 221, 83);" d="M 250.559 59.428 L 217.56483333333335 122.83183333333334 C 184.57066666666665 186.23566666666667 118.58233333333334 313.04333333333335 85.60233333333333 376.44716666666665 C 52.62233333333334 439.85099999999994 52.650666666666666 439.85099999999994 119.39883333333334 439.81500000000005 C 186.14700000000002 439.779 319.615 439.70700000000005 386.2465 439.6395 C 452.878 439.57199999999995 452.673 439.509 418.88466666666665 376.0651666666667 C 385.09633333333335 312.6213333333333 317.7246666666667 185.79666666666665 284.03883333333334 122.38433333333334 L 250.353 58.972" bx:d="M 250.559 59.428 U 52.594 439.851 U 52.679 439.851 U 453.083 439.635 U 452.468 439.446 U 250.353 58.972 1@14d84c4f"/>
  <path style="fill: rgb(255, 207, 54); stroke-linecap: round; stroke-linejoin: round; stroke-width: 60px; stroke: rgb(50, 43, 0); filter: none;" d="M 250.24 66.305 L 217.96083333333334 127.95283333333334 C 185.6816666666667 189.60066666666668 121.12333333333333 312.89633333333336 88.858 374.54416666666674 C 56.592666666666666 436.192 56.62033333333333 436.192 121.92233333333336 436.1566666666667 C 187.22433333333333 436.1213333333333 317.8006666666667 436.0506666666667 382.9881666666667 435.98483333333337 C 448.1756666666667 435.91900000000004 447.97433333333333 435.858 414.91799999999995 374.1716666666667 C 381.8616666666667 312.48533333333336 315.95033333333333 189.17366666666666 282.99466666666666 127.51783333333333 L 250.039 65.862" bx:d="M 250.24 66.305 U 56.565 436.192 U 56.648 436.192 U 448.377 435.98 U 447.773 435.797 U 250.039 65.862 1@442f0abb"/>
  <ellipse style="stroke: rgb(0, 0, 0);" cx="251.136" cy="370.637" rx="27.678" ry="27.784"/>
  <rect x="225.57" y="118.394" width="50.934" height="216.748" style="stroke: rgb(0, 0, 0);" rx="12.488" ry="12.488"/>
</svg>