<?xml version="1.0" encoding="utf-8"?>
<svg viewBox="0 0 500 500" xmlns="http://www.w3.org/2000/svg">
  <path d="M 257.34 0 H 325.66 V 257.34 H 583 V 325.66 H 325.66 V 583 H 257.34 V 325.66 H 0 V 257.34 H 257.34 Z" style="stroke-linecap: round; stroke-linejoin: round; stroke-width: 30px; paint-order: stroke; transform-box: fill-box; transform-origin: 50% 50%;" transform="matrix(0.707106, 0.707107, -0.707107, 0.707106, -39.256877, -39.256584)"/>
  <path d="M 382.287 321.73 L 450.607 321.73 C 458.891 321.73 465.607 328.446 465.607 336.73 L 465.607 579.07 L 707.947 579.07 C 716.231 579.07 722.947 585.786 722.947 594.07 L 722.947 662.39 C 722.947 670.674 716.231 677.39 707.947 677.39 L 465.607 677.39 L 465.607 919.729 C 465.607 928.013 458.891 934.729 450.607 934.729 L 382.287 934.729 C 374.003 934.729 367.287 928.013 367.287 919.729 L 367.287 677.39 L 124.947 677.39 C 116.663 677.39 109.947 670.674 109.947 662.39 L 109.947 594.07 C 109.947 585.786 116.663 579.07 124.947 579.07 L 367.287 579.07 L 367.287 336.73 C 367.287 328.446 374.003 321.73 382.287 321.73 Z M 397.287 594.07 C 397.287 602.354 390.571 609.07 382.287 609.07 L 139.947 609.07 L 139.947 647.39 L 382.287 647.39 C 390.571 647.39 397.287 654.106 397.287 662.39 L 397.287 904.729 L 435.607 904.729 L 435.607 662.39 C 435.607 654.106 442.323 647.39 450.607 647.39 L 692.947 647.39 L 692.947 609.07 L 450.607 609.07 C 442.323 609.07 435.607 602.354 435.607 594.07 L 435.607 351.73 L 397.287 351.73 L 397.287 594.07 Z" style="transform-origin: 787.757px 238.267px;" transform="matrix(0.707106, 0.707107, -0.707107, 0.707106, -0.000011, -0.000002)"/>
</svg>